<svg xmlns="http://www.w3.org/2000/svg" viewBox="0 0 512 512">
  <defs>
    <linearGradient id="bg" x1="0%" y1="0%" x2="100%" y2="100%">
      <stop offset="0%" style="stop-color:#092139"/>
      <stop offset="100%" style="stop-color:#1a4a6e"/>
    </linearGradient>
  </defs>
  <!-- Background -->
  <rect width="512" height="512" rx="64" fill="url(#bg)"/>
  <!-- M letter stylized -->
  <path d="M96 384V160l80 112 80-112v224h-48V248l-32 48-32-48v136H96z" fill="#31A7D4"/>
  <path d="M288 384V160l80 112 80-112v224h-48V248l-32 48-32-48v136h-48z" fill="#D57828"/>
  <!-- Wrench icon below -->
  <g transform="translate(180, 400) scale(0.6)">
    <path d="M50 20c-16.6 0-30 13.4-30 30 0 5.5 1.5 10.6 4 15l-20 20 15 15 20-20c4.4 2.5 9.5 4 15 4 16.6 0 30-13.4 30-30 0-5.5-1.5-10.6-4-15l-15 15-10-10 15-15c-4.4-2.5-9.5-4-15-4z" fill="#ffffff" opacity="0.8"/>
  </g>
</svg>
